<svg version="1.2" xmlns="http://www.w3.org/2000/svg" viewBox="0 0 140 80" width="140" height="80">
	<title>logo-small-svg-svg</title>
	<style>
		tspan { white-space:pre } 
		.s0 { fill: none } 
		.t1 { font-size: 108px;fill: #000000;font-family: "Candara" } 
		.s2 { fill: #000000 } 
		.s3 { fill: #1c96d4 } 
		.s4 { fill: #c61a41 } 
		.s5 { fill: #eeb034 } 
	</style>
	<g id="Layer">
		<path id="canvas_background" fill-rule="evenodd" class="s0" d="m-1 29h142v25h-142z"/>
	</g>
	<g id="Layer">
		<g id="Page-1">
			<g id="Group-3">
				<text id="HTMLPAGE" style="transform: matrix(.174,0,0,.165,37.351,47.178);paint-order:stroke fill markers;stroke: #000000;stroke-width: 0;stroke-linejoin: round;" >
					<tspan x="0" y="0" class="t1">HTMLPAGE
</tspan>
				</text>
				<g id="Group">
					<path id="Shape" fill-rule="evenodd" class="s2" d="m25.9 31.2q0.1 0.5-0.2 0.8l-11.7 16.7c-0.2 0.2-0.5 0.4-0.8 0.4-0.3 0.1-0.6 0-0.8-0.1l-0.3-0.2c-0.2-0.2-0.4-0.4-0.5-0.7 0-0.3 0-0.6 0.2-0.8l11.8-16.6c0.1-0.2 0.4-0.4 0.7-0.5 0.3 0 0.6 0 0.8 0.2l0.3 0.2c0.3 0.1 0.4 0.4 0.5 0.6zm-0.7 0.5q0.1-0.1 0.1-0.3-0.1-0.2-0.2-0.3l-0.3-0.2q-0.2-0.1-0.4-0.1-0.2 0-0.3 0.2l-1.4 2 1.1 0.7zm-16.5 13.1q-0.2 0-0.4-0.1l-6-4.5q-0.3-0.2-0.3-0.5 0-0.3 0.3-0.5l6-4.5c0.3-0.2 0.7-0.2 0.9 0.1 0.3 0.3 0.2 0.7-0.1 0.9l-5.3 4 5.3 3.9c0.2 0.2 0.3 0.5 0.2 0.8-0.1 0.2-0.3 0.4-0.6 0.4zm20.1 0c-0.3 0-0.5-0.2-0.6-0.4-0.1-0.3 0-0.6 0.2-0.8l5.3-3.9-5.3-4c-0.2-0.1-0.3-0.4-0.3-0.6 0.1-0.2 0.2-0.4 0.5-0.5 0.2-0.1 0.4-0.1 0.6 0.1l6 4.5q0.3 0.2 0.3 0.5 0 0.3-0.3 0.5l-6 4.5q-0.2 0.1-0.4 0.1z"/>
					<path id="Shape" class="s3" d="m15.2 34.2c1-0.4 1.4-0.7 1.7-1.7 0.4 1 0.7 1.3 1.7 1.7-1 0.3-1.3 0.6-1.7 1.6-0.4-1-0.7-1.3-1.7-1.6z"/>
					<path id="Shape" class="s4" d="m9.7 38.5c1.8-0.7 2.3-1.1 3-2.8 0.6 1.7 1.2 2.1 3 2.8-1.8 0.6-2.4 1.1-3 2.8-0.7-1.7-1.2-2.2-3-2.8z"/>
					<path id="Shape" class="s5" d="m22.1 41.8c1.3-0.4 1.7-0.8 2.2-2 0.4 1.2 0.8 1.6 2.1 2-1.3 0.5-1.7 0.8-2.1 2.1-0.5-1.3-0.9-1.6-2.2-2.1z"/>
				</g>
			</g>
		</g>
	</g>
</svg>